HIERARCHY
ROOT Hips
{
	OFFSET 0.00000 0.00000 0.00000
	CHANNELS 6 Xposition Yposition Zposition Zrotation Yrotation Xrotation 
	JOINT LHipJoint
	{
		OFFSET 0 0 0
		CHANNELS 3 Zrotation Yrotation Xrotation
		JOINT LeftHip
		{
			OFFSET 1.57338 -1.94743 0.52196
			CHANNELS 3 Zrotation Yrotation Xrotation
			JOINT LeftKnee
			{
				OFFSET 2.60333 -7.15259 0.00000
				CHANNELS 3 Zrotation Yrotation Xrotation
				JOINT LeftAnkle
				{
					OFFSET 2.77855 -7.63400 0.00000
					CHANNELS 3 Zrotation Yrotation Xrotation
					JOINT LeftToe
					{
						OFFSET 0.19847 -0.54529 2.28466
						CHANNELS 3 Zrotation Yrotation Xrotation
						End Site
						{
							OFFSET 0.00000 -0.00000 1.17993
						}
					}
				}
			}
		}
	}
	JOINT RHipJoint
	{
		OFFSET 0 0 0
		CHANNELS 3 Zrotation Yrotation Xrotation
		JOINT RightHip
		{
			OFFSET -1.61527 -1.94743 0.52196
			CHANNELS 3 Zrotation Yrotation Xrotation
			JOINT RightKnee
			{
				OFFSET -2.53829 -6.97390 0.00000
				CHANNELS 3 Zrotation Yrotation Xrotation
				JOINT RightAnkle
				{
					OFFSET -2.80762 -7.71387 0.00000
					CHANNELS 3 Zrotation Yrotation Xrotation
					JOINT RightToe
					{
						OFFSET -0.30536 -0.83898 2.28801
						CHANNELS 3 Zrotation Yrotation Xrotation
						End Site
						{
							OFFSET -0.00000 -0.00000 1.21323
						}
					}
				}
			}
		}
	}
	JOINT lowerback
	{
		OFFSET 0 0 0
		CHANNELS 3 Zrotation Yrotation Xrotation
		JOINT Chest
		{
			OFFSET -0.04381 1.99497 -0.19778
			CHANNELS 3 Zrotation Yrotation Xrotation
			JOINT Chest2
			{
				OFFSET -0.01959 2.01295 -0.04372
				CHANNELS 3 Zrotation Yrotation Xrotation
				JOINT lowerneck
				{
					OFFSET 0 0 0
					CHANNELS 3 Zrotation Yrotation Xrotation
					JOINT Neck
					{
						OFFSET -0.05459 1.76913 0.09708
						CHANNELS 3 Zrotation Yrotation Xrotation
						JOINT Head
						{
							OFFSET 0.09461 1.77368 -0.11172
							CHANNELS 3 Zrotation Yrotation Xrotation
							End Site
							{
								OFFSET 0.03812 1.78157 -0.04834
							}
						}
					}
				}
				JOINT LeftCollar
				{
					OFFSET 0 0 0
					CHANNELS 3 Zrotation Yrotation Xrotation
					JOINT LeftShoulder
					{
						OFFSET 3.50922 1.24034 -0.28866
CHANNELS 3 Zrotation Xrotation Yrotation
						JOINT LeftElbow
						{
OFFSET 0 -5.401880 0.000000
CHANNELS 3 Zrotation Xrotation Yrotation
							JOINT LeftWrist
							{
OFFSET 0 -3.685590 0.000000
CHANNELS 3 Zrotation Xrotation Yrotation
								JOINT lhand
								{
									OFFSET 0 0 0
CHANNELS 3 Zrotation Xrotation Yrotation
									JOINT LFingers
									{
OFFSET 0 -0.617530 0.000000
CHANNELS 3 Zrotation Xrotation Yrotation
										End Site
										{
OFFSET 0 -0.497870 0.000000
										}
									}
								}
								JOINT LThumb
								{
OFFSET 0 0.000000 0.000000
CHANNELS 3 Zrotation Xrotation Yrotation
									End Site
									{
OFFSET 0 -0.505470 0.505470
									}
								}
							}
						}
					}
				}
				JOINT RightCollar
				{
					OFFSET 0 0 0
					CHANNELS 3 Zrotation Yrotation Xrotation
					JOINT RightShoulder
					{
						OFFSET -2.95373 1.39649 -0.27346
CHANNELS 3 Zrotation Xrotation Yrotation
						JOINT RightElbow
						{
OFFSET 0 -6.106700 -0.000000
CHANNELS 3 Zrotation Xrotation Yrotation
							JOINT RightWrist
							{
OFFSET 0 -3.630520 0.000000
CHANNELS 3 Zrotation Xrotation Yrotation
								JOINT rhand
								{
									OFFSET 0 0 0
CHANNELS 3 Zrotation Xrotation Yrotation
									JOINT RFingers
									{
OFFSET 0 -0.583850 0.000000
CHANNELS 3 Zrotation Xrotation Yrotation
										End Site
										{
OFFSET 0 -0.470710 0.000000
										}
									}
								}
								JOINT RThumb
								{
OFFSET 0 0.000000 0.000000
CHANNELS 3 Zrotation Xrotation Yrotation
									End Site
									{
OFFSET 0 -0.477900 0.477900
									}
								}
							}
						}
					}
				}
			}
		}
	}
}
MOTION
Frames: 9
Frame Time: 0.008333333333333333
-0.003500 15.897100 2.295300 5.327100 -8.248700 -7.936500 0.000000 0.000000 0.000000 -17.252800 0.820800 -22.980000 13.959200 19.101600 72.079900 3.347600 -6.840300 -33.330100 0.732600 -5.468300 -15.249200 0.000000 0.000000 0.000000 9.772700 20.426300 -19.638800 -14.460900 -19.247900 73.607100 -4.320400 0.682000 -39.349700 -0.754200 5.546800 -15.474800 -4.476100 1.380700 15.831300 -1.740600 1.035500 5.398400 0.511100 0.492800 -3.174100 -6.190800 -0.616800 -10.332400 7.342000 -0.578500 5.952300 3.218600 -0.073400 3.493800 -0.000000 -0.000000 0.000000 28.792900 -1.163900 -0.406600 15.443900 -24.760900 3.409700 23.157500 17.721300 -24.746800 0.000000 0.000000 0.000000 -7.125000 0.000000 0.000000 -6.979300 56.469800 1.969400 -0.000000 -0.000000 0.000000 -24.404600 -4.893900 -10.384100 -14.355300 -23.240400 -2.966900 -28.842000 4.510400 -6.313800 0.000000 0.000000 0.000000 7.125000 0.000000 -0.000000 -1.544900 22.781400 -0.826400
0.037620 15.789767 2.358406 4.987579 -8.249133 -7.748499 0.000000 0.000000 0.000000 -16.873269 2.146136 -23.275886 13.971964 19.105264 72.118581 3.718309 -8.395396 -35.077619 0.488017 -4.479191 -12.428804 0.000000 0.000000 0.000000 10.125904 20.706575 -19.484757 -14.533249 -19.267777 73.826488 -4.882097 1.518445 -41.690430 -0.448313 4.295803 -11.910291 -4.097320 1.382849 14.886626 -1.649263 1.143694 4.992636 0.387446 0.552562 -3.099228 -6.554805 -0.368833 -10.985821 7.286888 -0.186963 6.725193 3.294552 0.122106 3.807176 0.000000 0.000000 0.000000 39.623043 -0.877935 1.245836 20.478261 -31.210948 5.778683 24.229858 13.987711 -27.195323 0.000000 0.000000 0.000000 -7.125000 0.000000 0.000000 -6.893740 59.247530 2.405831 0.000000 0.000000 0.000000 -35.005097 -6.887039 -19.250275 -15.544321 -24.898349 -3.452192 -31.523045 2.222033 -3.013412 0.000000 0.000000 0.000000 7.125000 0.000000 0.000000 -3.742803 26.442576 -1.687714
0.103116 16.463346 2.474042 4.804179 -6.761263 -6.424453 0.000000 0.000000 0.000000 -17.655093 1.822057 -20.852565 11.504881 18.172201 64.409193 2.794087 -7.880975 -30.211416 0.384463 -3.981983 -11.026085 0.000000 0.000000 0.000000 10.334393 19.313662 -16.606270 -12.052111 -18.411206 66.152272 -3.663733 -1.141417 -36.710557 -0.731897 5.456823 -15.218491 -3.863180 1.118337 12.818514 -1.452838 0.929339 4.144029 0.523131 0.455909 -2.867744 -6.867749 -0.518391 -10.976010 7.532249 -0.380466 7.085303 3.413386 0.031728 3.929833 0.000000 0.000000 0.000000 49.304453 -2.354680 5.244783 26.354728 -37.555341 9.103619 27.348333 13.100230 -23.217526 0.000000 0.000000 0.000000 -7.125000 0.000000 0.000000 -1.932692 55.746842 0.510759 0.000000 0.000000 0.000000 -45.175751 -6.973734 -25.229449 -19.311610 -29.802526 -5.185608 -34.066405 -2.839238 -1.248346 0.000000 0.000000 0.000000 7.125000 0.000000 0.000000 -5.813094 28.454403 -2.352338
0.179142 17.739606 2.576553 3.810653 -5.828020 -4.760194 0.000000 0.000000 0.000000 -16.826490 0.838605 -17.204944 8.360034 16.377699 53.849366 0.765020 -5.922634 -15.588421 0.722110 -5.429856 -15.138731 0.000000 0.000000 0.000000 12.259466 21.417185 -11.912483 -8.947070 -16.773524 55.906943 -1.282320 -6.159247 -24.423840 -1.097537 6.657118 -18.703445 -2.818399 0.917206 10.776611 -1.093619 0.864667 2.919232 0.337516 0.437982 -3.020978 -7.441102 -0.821632 -10.281020 8.500668 -0.909885 8.451008 3.787530 -0.203226 4.276461 0.000000 0.000000 0.000000 56.972292 -5.064016 9.943644 33.107577 -43.412478 13.496044 28.669131 10.368428 -21.570702 0.000000 0.000000 0.000000 -7.125000 0.000000 0.000000 -0.079514 54.234801 0.017995 0.000000 0.000000 0.000000 -53.577974 -7.436202 -30.330965 -23.563712 -34.699496 -7.456760 -35.918572 -5.601672 -0.305241 0.000000 0.000000 0.000000 7.125000 0.000000 0.000000 -7.331133 29.564901 -2.779859
0.243423 18.972718 2.656438 3.671699 -4.327400 -3.427674 0.000000 0.000000 0.000000 -15.891872 -1.112248 -13.652414 5.396216 13.814471 42.503417 0.017120 -0.720388 2.659786 0.489070 -4.481029 -12.434652 0.000000 0.000000 0.000000 12.534914 22.539644 -8.390845 -6.264529 -14.678647 46.032022 0.267621 -11.466272 -11.614453 -0.431176 4.194968 -11.628451 -2.281207 0.592385 8.707299 -1.250896 0.537614 1.933588 -0.069946 0.279484 -2.886052 -7.583645 -1.033610 -9.616993 8.640814 -1.331068 10.275226 3.845306 -0.415320 4.757596 0.000000 0.000000 0.000000 65.325068 -8.325751 14.667782 41.412566 -48.882915 19.497479 30.062285 6.661703 -21.416281 0.000000 0.000000 0.000000 -7.125000 0.000000 0.000000 1.444529 54.353388 -0.332096 0.000000 0.000000 0.000000 -62.774961 -8.542437 -34.821343 -27.465959 -38.619018 -9.788907 -37.183389 -5.112237 -0.398998 0.000000 0.000000 0.000000 7.125000 0.000000 0.000000 -8.307110 29.431217 -3.182912
0.308678 19.494142 2.729017 2.772310 -3.572668 -2.727499 0.000000 0.000000 0.000000 -13.896442 -5.030407 -9.160638 3.905962 12.034109 35.853039 -0.019475 2.591934 -1.427825 0.386530 -3.984107 -11.032891 0.000000 0.000000 0.000000 13.617859 23.062372 -6.311721 -5.337353 -13.753889 42.260488 -0.364272 -3.812072 -13.460343 -0.970835 6.267012 -17.562964 -0.850431 0.449615 6.836989 -1.256732 0.497951 1.102150 -0.862327 0.250662 -2.691624 -7.742577 -0.975944 -9.508796 8.063856 -1.279307 12.596929 3.721324 -0.432631 5.447115 0.000000 0.000000 0.000000 77.435788 -13.268069 21.149857 48.159987 -52.225202 24.712340 30.701175 0.856097 -22.529197 0.000000 0.000000 0.000000 -7.125000 0.000000 0.000000 1.907572 55.723507 -0.502095 0.000000 0.000000 0.000000 -75.175793 -10.511444 -39.776605 -31.402375 -42.063528 -12.339276 -38.088093 -5.181427 -0.500680 0.000000 0.000000 0.000000 7.125000 0.000000 0.000000 -8.998395 29.289236 -3.483678
0.332901 19.251262 2.772975 2.824466 -2.902348 -4.069914 0.000000 0.000000 0.000000 -13.436599 -10.325723 -3.332795 3.818218 11.914511 35.430135 -0.105991 6.337628 -5.126802 0.357238 -3.839440 -10.625401 0.000000 0.000000 0.000000 14.855304 23.802824 -3.631332 -5.802363 -14.234053 44.183323 -0.405103 3.106858 -11.356535 -0.965711 6.256777 -17.531453 -1.210767 0.299279 7.032440 -1.372463 0.263676 1.096571 -0.759407 0.137253 -2.809715 -7.953088 -0.749386 -9.344591 8.038467 -0.964744 12.986403 3.776872 -0.294420 5.513887 0.000000 0.000000 0.000000 90.236211 -19.726036 32.688703 56.349179 -55.255819 31.321810 31.375811 -0.786227 -22.902762 0.000000 0.000000 0.000000 -7.125000 0.000000 0.000000 2.577663 56.288941 -0.713932 0.000000 0.000000 0.000000 -87.968980 -13.908052 -45.551492 -39.695495 -47.888140 -18.213137 -40.267925 -7.437316 1.295433 0.000000 0.000000 0.000000 7.125000 0.000000 0.000000 -10.934673 31.557378 -3.653463
0.329921 18.304914 2.789597 3.443659 -1.920450 -4.912498 0.000000 0.000000 0.000000 -13.303655 -12.832777 -0.688106 4.387734 12.658770 38.105010 0.300056 -5.090145 -9.825648 2.710099 -10.208561 -29.656364 0.000000 0.000000 0.000000 16.486273 26.760857 -1.713515 -7.118820 -15.430140 49.320521 -0.708678 5.600340 -14.970529 -0.672947 5.240776 -14.597551 -2.374017 -0.048304 7.276158 -1.684366 -0.312693 0.837929 -0.374614 -0.135102 -3.211109 -8.013291 -0.439552 -8.599308 8.332024 -0.584060 12.083983 3.890039 -0.105523 5.075017 0.000000 0.000000 0.000000 103.610254 -25.558196 43.903900 68.536634 -58.182497 41.525924 34.089563 -1.646506 -22.324696 0.000000 0.000000 0.000000 -7.125000 0.000000 0.000000 5.739749 56.261808 -1.588924 0.000000 0.000000 0.000000 -99.977035 -18.370372 -50.099459 -55.187241 -54.876405 -30.371160 -40.869667 -6.249150 0.055037 0.000000 0.000000 0.000000 7.125000 0.000000 0.000000 -11.230169 29.952721 -4.195893
0.295687 17.154695 2.724005 4.227121 -1.294264 -6.946730 0.000000 0.000000 0.000000 -13.562982 -10.570952 -3.294175 6.521446 14.913063 47.036157 1.657924 -9.741028 -23.104247 1.345562 -7.343705 -20.737887 0.000000 0.000000 0.000000 18.818381 27.546747 -0.156002 -9.173104 -16.917084 56.685683 -2.913103 3.874120 -31.407899 -0.565617 4.810154 -13.369030 -3.663110 -0.282271 9.962914 -1.927989 -0.879518 0.831023 0.174150 -0.379626 -4.699849 -8.289304 -0.335333 -7.720425 8.729172 -0.479650 11.287155 4.052039 -0.059730 4.672272 0.000000 0.000000 0.000000 115.606962 -30.521441 53.012653 84.024416 -59.859277 54.827607 34.936909 1.688046 -19.700411 0.000000 0.000000 0.000000 -7.125000 0.000000 0.000000 6.952227 53.440774 -1.447386 0.000000 0.000000 0.000000 -111.836573 -23.002698 -52.444960 -77.551122 -59.394729 -49.241602 -41.255173 -3.865993 -3.308290 0.000000 0.000000 0.000000 7.125000 0.000000 0.000000 -11.006200 25.564392 -5.271673
